<?xml version="1.0" encoding="UTF-8" standalone="no"?>
<svg
   xmlns:dc="http://purl.org/dc/elements/1.1/"
   xmlns:cc="http://creativecommons.org/ns#"
   xmlns:rdf="http://www.w3.org/1999/02/22-rdf-syntax-ns#"
   xmlns:svg="http://www.w3.org/2000/svg"
   xmlns="http://www.w3.org/2000/svg"
   xmlns:sodipodi="http://sodipodi.sourceforge.net/DTD/sodipodi-0.dtd"
   xmlns:inkscape="http://www.inkscape.org/namespaces/inkscape"
   height="24"
   viewBox="0 0 24 24"
   width="24"
   version="1.1"
   id="svg6"
   sodipodi:docname="drag.svg"
   inkscape:version="0.92.4 (5da689c313, 2019-01-14)">
  <metadata
     id="metadata12">
    <rdf:RDF>
      <cc:Work
         rdf:about="">
        <dc:format>image/svg+xml</dc:format>
        <dc:type
           rdf:resource="http://purl.org/dc/dcmitype/StillImage" />
      </cc:Work>
    </rdf:RDF>
  </metadata>
  <defs
     id="defs10" />
  <sodipodi:namedview
     pagecolor="#ffffff"
     bordercolor="#666666"
     borderopacity="1"
     objecttolerance="10"
     gridtolerance="10"
     guidetolerance="10"
     inkscape:pageopacity="0"
     inkscape:pageshadow="2"
     inkscape:window-width="1920"
     inkscape:window-height="1010"
     id="namedview8"
     showgrid="false"
     inkscape:zoom="9.8333333"
     inkscape:cx="12"
     inkscape:cy="12"
     inkscape:window-x="0"
     inkscape:window-y="0"
     inkscape:window-maximized="1"
     inkscape:current-layer="svg6" />
  <path
     d="M0 0h24v24H0V0z"
     fill="none"
     id="path2" />
  <path
     d="m 7.7186441,13.335593 c -1.5698306,0 -2.8542373,1.339323 -2.8542373,2.976272 0,1.636949 1.2844067,2.976271 2.8542373,2.976271 1.5698305,0 2.8542379,-1.339322 2.8542379,-2.976271 0,-1.636949 -1.2844074,-2.976272 -2.8542379,-2.976272 z m 0,-8.9288134 c -1.5698306,0 -2.8542373,1.3393221 -2.8542373,2.9762712 0,1.6369492 1.2844067,2.9762722 2.8542373,2.9762722 1.5698305,0 2.8542379,-1.339323 2.8542379,-2.9762722 0,-1.6369491 -1.2844074,-2.9762712 -2.8542379,-2.9762712 z m 8.5627119,5.9525434 c 1.56983,0 2.854237,-1.339323 2.854237,-2.9762722 0,-1.6369491 -1.284407,-2.9762712 -2.854237,-2.9762712 -1.569831,0 -2.854238,1.3393221 -2.854238,2.9762712 0,1.6369492 1.284407,2.9762722 2.854238,2.9762722 z m 0,2.97627 c -1.569831,0 -2.854238,1.339323 -2.854238,2.976272 0,1.636949 1.284407,2.976271 2.854238,2.976271 1.56983,0 2.854237,-1.339322 2.854237,-2.976271 0,-1.636949 -1.284407,-2.976272 -2.854237,-2.976272 z"
     id="path4"
     inkscape:connector-curvature="0"
     sodipodi:nodetypes="ssssssssssssssssssss"
     style="stroke-width:1.45730782" />
</svg>
